<svg xmlns="http://www.w3.org/2000/svg" xmlns:xlink="http://www.w3.org/1999/xlink" width="101.068" height="30.048" viewBox="0 0 101.068 30.048">
  <defs>
    <clipPath id="clip-path">
      <path id="Path_2935" data-name="Path 2935" d="M0,53.923H101.068V83.971H0Z" fill="#0f0140"/>
    </clipPath>
  </defs>
  <g id="Group_9099" data-name="Group 9099" transform="translate(-118 -268.923)">
    <g id="Mask_Group_33" data-name="Mask Group 33" transform="translate(118 215)" clip-path="url(#clip-path)">
      <path id="Path_2294" data-name="Path 2294" d="M3.568,198.1v3.213a3.553,3.553,0,0,1-.066.693,3.577,3.577,0,0,1-3.5,2.92V198.1Z" transform="translate(0 -121.241)" fill="#0f0140"/>
      <path id="Path_2295" data-name="Path 2295" d="M12.981,171.326a3.306,3.306,0,0,1-3.3,3.307H0v-.78a2.526,2.526,0,0,1,2.527-2.527Z" transform="translate(0 -104.854)" fill="#0f0140"/>
      <path id="Path_2296" data-name="Path 2296" d="M11.917,189.794A3.3,3.3,0,0,1,8.611,193.1H0v-.78a2.526,2.526,0,0,1,2.527-2.527Z" transform="translate(0 -116.156)" fill="#0f0140"/>
      <path id="Path_2297" data-name="Path 2297" d="M41.158,188.54h2.1a.731.731,0,0,0,.731-.731V172.055a.731.731,0,0,0-.731-.731h-2.1a.731.731,0,0,0-.731.731v15.754a.731.731,0,0,0,.731.731" transform="translate(-24.742 -104.852)" fill="#0f0140"/>
      <path id="Path_2298" data-name="Path 2298" d="M65.831,171.326h-3.2a3.307,3.307,0,0,0-3.306,3.307h6.5a5.126,5.126,0,0,1,5.418,5.3v.048a5.053,5.053,0,0,1-5.418,5.253h-3.2a3.307,3.307,0,0,0-3.306,3.307h6.5c5.289,0,9.129-3.62,9.129-8.655,0-4.959-3.84-8.559-9.129-8.559" transform="translate(-36.309 -104.854)" fill="#0f0140"/>
      <path id="Path_2299" data-name="Path 2299" d="M117.6,181.186c0,2.747-1.362,4.26-3.834,4.26-2.488,0-3.858-1.555-3.858-4.379v-6.176a3.567,3.567,0,0,0-3.567-3.567v9.862c0,4.839,2.689,7.614,7.378,7.614,4.734,0,7.449-2.827,7.449-7.756v-9.72a3.567,3.567,0,0,0-3.567,3.567Z" transform="translate(-65.083 -104.852)" fill="#0f0140"/>
      <path id="Path_2300" data-name="Path 2300" d="M160.126,185.022c-2.928,0-5.135-2.381-5.135-5.585a5.217,5.217,0,0,1,5.135-5.514,5.9,5.9,0,0,1,2.521.563,3.788,3.788,0,0,0,4.437-1.008l-.227-.216a8.921,8.921,0,0,0-6.708-2.67,8.892,8.892,0,0,0-.118,17.783,8.9,8.9,0,0,0,6.955-3.034l.222-.231,0,0a3.865,3.865,0,0,0-4.48-.726,5.844,5.844,0,0,1-2.6.64" transform="translate(-92.586 -104.405)" fill="#0f0140"/>
      <path id="Path_2301" data-name="Path 2301" d="M199.33,188.54h2.1a.733.733,0,0,0,.733-.733V172.057a.733.733,0,0,0-.733-.733h-2.1a.733.733,0,0,0-.733.733v15.749a.733.733,0,0,0,.733.733" transform="translate(-121.544 -104.852)" fill="#0f0140"/>
      <path id="Path_2302" data-name="Path 2302" d="M224.4,171.732a1.185,1.185,0,0,0-1.085-.71h-1.574a1.194,1.194,0,0,0-1.089.71l-7.261,16.622h2.674a1.552,1.552,0,0,0,1.427-.942l4.988-11.756,4.988,11.748a1.555,1.555,0,0,0,1.431.949h2.766Z" transform="translate(-130.6 -104.668)" fill="#0f0140"/>
      <line id="Line_995" data-name="Line 995" x2="0.048" transform="translate(91.883 70.989)" fill="#fcfcfc"/>
    </g>
  </g>
</svg>
